<svg xmlns="http://www.w3.org/2000/svg" xmlns:xlink="http://www.w3.org/1999/xlink" width="1200" height="1200" viewBox="0 0 512 512" fill="none" class="h-full w-full" id="iconWithBackground"><rect id="r4" width="512" height="512" x="0" y="0" rx="80" fill="url(#linearGradient-iconWithBackground)" stroke="#000000" stroke-width="0" stroke-opacity="100%" paint-order="stroke"/><rect width="512" height="512" x="0" y="0" fill="url(#glare)" rx="80" style="mix-blend-mode: overlay;"/><defs><linearGradient id="linearGradient-iconWithBackground" gradientUnits="userSpaceOnUse" gradientTransform="rotate(16)" style="transform-origin:center center"><stop stop-color="#9a031e"/><stop offset="1" stop-color="#313548"/></linearGradient><radialGradient id="glare" cx="0" cy="0" r="1" gradientUnits="userSpaceOnUse" gradientTransform="translate(256) rotate(90) scale(512)"><stop stop-color="white"/><stop offset="1" stop-color="white" stop-opacity="0"/></radialGradient><clipPath id="clip"><use xlink:href="#r4"/></clipPath></defs><svg xmlns="http://www.w3.org/2000/svg" width="435" height="435" viewBox="0 0 16 16" x="38.5" y="38.5"><path fill="#eceaea" d="M7.25 2H3.5A1.5 1.5 0 0 0 2 3.5v3.75h1.718A2.5 2.5 0 0 1 7.25 3.716zM2 8.75v3.75A1.5 1.5 0 0 0 3.5 14h3.75v-3.085a4.743 4.743 0 0 1-3.455 1.826a.75.75 0 1 1-.092-1.497a3.252 3.252 0 0 0 2.96-2.494zM8.75 14h3.75a1.5 1.5 0 0 0 1.5-1.5V8.75H9.337a3.252 3.252 0 0 0 2.96 2.494a.75.75 0 1 1-.093 1.497a4.743 4.743 0 0 1-3.454-1.826zM14 7.25h-1.718A2.5 2.5 0 0 0 8.75 3.717V2h3.75A1.5 1.5 0 0 1 14 3.5z"/><path fill="#eceaea" d="M6.352 6.787c.16.012.312.014.448.012c.002-.136 0-.289-.012-.448c-.043-.617-.203-1.181-.525-1.503a1 1 0 0 0-1.414 1.414c.322.322.886.482 1.503.525m3.297 0c-.16.012-.312.014-.448.012c-.003-.136 0-.289.011-.448c.044-.617.203-1.181.526-1.503a1 1 0 1 1 1.414 1.414c-.322.322-.887.482-1.503.525"/></svg></svg>